<svg xmlns="http://www.w3.org/2000/svg" viewBox="0 0 32 32" fill="none">
  <circle cx="16" cy="16" r="16" fill="#1f5f45"/>
  <g stroke="#fff" stroke-width="1.5" stroke-linecap="round" stroke-linejoin="round" fill="none">
    <path d="M16 26v-8l-2-2"/>
    <path d="M20 11v.5a5 5 0 0 1-2.5 4.3 5.5 5.5 0 0 1-1.5 3.7"/>
    <path d="M12 11v.5a5 5 0 0 0 2.5 4.3 5.5 5.5 0 0 0 1.5 3.7"/>
    <path d="M16 6a3.5 3.5 0 0 0-3.5 3.5c0 1.2.7 2.3 1.7 2.8"/>
    <path d="M16 6a3.5 3.5 0 0 1 3.5 3.5c0 1.2-.7 2.3-1.7 2.8"/>
  </g>
</svg>
